<?xml version="1.0" encoding="utf-8"?>
<!-- Generator: Adobe Illustrator 26.0.0, SVG Export Plug-In . SVG Version: 6.00 Build 0)  -->
<svg version="1.1" id="Capa_1" xmlns="http://www.w3.org/2000/svg" xmlns:xlink="http://www.w3.org/1999/xlink" x="0px" y="0px"
	 viewBox="0 0 512 512" style="enable-background:new 0 0 512 512;" xml:space="preserve">
<style type="text/css">
	.st0{fill:#ECCCA8;}
	.st1{fill:#F29F7F;}
	.st2{fill:#AABF7A;}
	.st3{fill:#675349;}
	.st4{fill:#FCFBFB;}
	.st5{fill:#FEFEFE;}
	.st6{fill:#59453E;}
</style>
<path class="st0" d="M245.09,327.62c-15.39,0-30.78,0.29-46.15-0.09c-12.82-0.32-25.79-0.4-38.41-2.41
	c-30.31-4.81-61.22-5.71-91.04-13.68c-6.31-1.69-12.59-3.58-17.99-7.41c-5.02-3.56-5.06-7.13-0.5-11.29
	c4.51-4.11,10.37-5.06,15.88-6.26c14.97-3.25,30.17-4.86,45.45-6.31c37.11-3.53,74.27-4.28,111.5-4.67
	c11.49-0.12,23.03-0.82,34.53-0.61c27.44,0.5,54.91,0.93,82.31,2.32c24.65,1.25,49.34,2.69,73.72,6.91
	c7.71,1.33,15.53,2.63,22.6,6.37c2.99,1.58,5.62,3.45,5.53,7.36c-0.08,3.61-2.57,5.41-5.31,6.95c-10.21,5.74-21.59,7.8-32.85,10.07
	c-15.2,3.06-30.57,5.02-45.97,6.73c-3.99,0.44-7.99,0.62-12,1.21C312.79,327.72,278.95,328.11,245.09,327.62z M195.27,281.62
	c-17.6-0.35-31.53,1.2-45.5,1.87c-23.37,1.11-46.64,2.91-69.8,6.15c-7.74,1.08-15.62,1.99-22.8,5.53c-1.31,0.64-3.32,0.9-3.22,2.8
	c0.09,1.75,1.98,2.3,3.34,2.81c3.75,1.42,7.51,2.95,11.4,3.85c29.53,6.86,59.65,9.73,89.73,12.62c25.97,2.49,52.08,2.78,78.15,3.42
	c24.77,0.6,49.51-1.27,74.25-2.22c11.48-0.44,22.95-1.29,34.38-2.44c17.7-1.78,35.39-3.71,52.95-6.73
	c11.16-1.92,22.22-4.2,32.83-8.24c1.9-0.72,4.57-1.23,4.48-3.83c-0.09-2.55-2.83-3.02-4.7-3.62c-3.82-1.21-7.75-2.14-11.7-2.87
	c-27.75-5.17-55.93-6.14-83.99-7.92c-22.59-1.43-45.25-1.91-67.89-2.37C242.01,279.93,216.84,280.42,195.27,281.62z"/>
<path class="st0" d="M52.08,308.17c9.07,7.65,20.03,11.25,29.95,16.86c9.02,5.1,19.41,7.22,29.48,9.62
	c25.4,6.06,51.23,8.95,77.26,10.78c28.59,2.02,57.2,2.79,85.8,1.9c32.17-1.01,64.25-3.58,95.86-10.29
	c21.79-4.62,42.11-12.71,61.05-24.39c1.14-0.7,2.28-1.4,3.47-2.01c0.24-0.12,0.69,0.17,1.42,0.37c-0.21,2.38-1.56,4.03-3.28,5.57
	c-12.86,11.58-28.23,18.18-44.68,22.65c-22.99,6.25-46.36,9.84-70.11,11.89c-29.7,2.57-59.41,3.69-89.16,2.93
	c-40.05-1.02-80.08-2.95-119.24-12.59c-13.43-3.31-26.83-6.98-38.98-13.82c-6.66-3.75-12.49-8.82-17.55-14.63
	C52.44,311.94,51.39,310.68,52.08,308.17z"/>
<path class="st0" d="M397.3,324.61c-8.64,5.01-17.94,5.99-26.87,7.53c-21.7,3.75-43.56,5.96-65.59,7.52
	c-29.78,2.1-59.53,2.44-89.27,1.57c-22.93-0.67-45.89-2-68.73-5.03c-17.12-2.27-34.19-4.38-50.75-9.46
	c-0.73-0.22-1.54-0.22-2.25-0.49c-1.12-0.41-2.23-1.11-1.96-2.47c0.35-1.79,1.73-0.71,2.75-0.8c4.18-0.39,7.5,2.27,11.45,3
	c20.55,3.82,41.28,5.95,62.07,7.9c38.14,3.58,76.36,4.36,114.55,2.92c26.55-1,53.14-2.82,79.47-7.32
	c8.47-1.45,16.98-2.95,25.53-3.94C390.71,325.19,393.13,321.31,397.3,324.61z"/>
<path class="st1" d="M486.82,236.97c-0.26,5.7-9.18,15.92-14.48,17.05c-4.28,0.91-5.41-1.79-4.57-4.92
	c1.77-6.6,5.35-12.22,11.24-16.04c1.62-1.05,3.47-1.73,5.38-0.5C486.14,233.69,487.06,235.26,486.82,236.97z"/>
<path class="st2" d="M484.41,268.69c-2.18-0.07-4.38-1.68-4.36-5.49c0.03-4,3.65-7.15,8.12-7.07c3.05,0.06,5.88,0.89,6.31,4.43
	C494.97,264.5,490.25,268.74,484.41,268.69z"/>
<path class="st2" d="M459.59,276.96c-2.41-0.1-5.6-0.44-5.71-4.65c-0.08-3.04,5.43-8.12,8.6-8.06c4.04,0.09,5.65,2.91,5.91,6.36
	C468.65,274.22,464.89,276.99,459.59,276.96z"/>
<path class="st0" d="M364.41,309.96c-78.33-4.24-156.62-4.85-234.9,0.61C144.43,300.4,324.43,299.65,364.41,309.96z"/>
<path class="st0" d="M412.78,302.45c-35.88-3.87-71.75-7.74-107.63-11.6c36.41-1.33,72.42,1.36,107.91,9.16
	C412.97,300.82,412.88,301.63,412.78,302.45z"/>
<path class="st0" d="M77.25,301.5c35.68-10.18,72.32-10.98,109.02-11.22C150.03,294.96,113.58,297.67,77.25,301.5z"/>
<g>
	<path class="st3" d="M3.19,194.76"/>
	<path class="st3" d="M3.19,194.76"/>
	<path class="st4" d="M3.19,194.76"/>
	<path class="st3" d="M3.19,194.76"/>
	<path class="st4" d="M3.19,194.76"/>
	<path class="st4" d="M3.19,194.76"/>
	<path class="st4" d="M3.19,194.76"/>
	<path class="st5" d="M3.19,194.76"/>
	<path class="st5" d="M3.19,194.76"/>
	<path class="st4" d="M3.19,194.76"/>
</g>
<g>
	<path class="st6" d="M56.26,271c-2.54-0.21-5.07-0.4-7.61-0.63c-5.77-0.52-11.42-1.4-16.37-4.8c-6.81-4.67-8.05-11.93-3.06-18.5
		c3.39-4.46,7.84-7.59,12.88-9.86c7.28-3.28,14.75-6.02,22.71-7.21c3.3-0.49,5.49-2.48,6.92-5.39c2.93-5.95,5.85-11.91,8.78-17.86
		c7.83-15.92,15.65-31.84,23.5-47.75c1.43-2.91,2.96-5.77,4.48-8.64c0.9-1.69,2.2-2.72,4.27-2.51c2.88,0.3,4.51,2.34,3.48,5.02
		c-1.8,4.72-3.77,9.39-5.95,13.95c-3.93,8.19-8.09,16.28-12.13,24.42c-0.47,0.95-0.79,1.99-1.32,3.33c2.03,0.21,3.8,0.5,5.58,0.54
		c6.18,0.15,12.02-1.33,17.51-4.08c9.57-4.8,18.34-10.78,25.73-18.58c4.67-4.93,8.11-10.64,9.46-17.4
		c1.59-7.97-2.02-13.95-9.84-16.35c-5.4-1.66-11.01-1.96-16.54-1.36c-26.36,2.87-50.6,11.64-72.45,26.72
		c-3.23,2.23-6.29,4.75-9.22,7.37c-4.1,3.66-5.98,8.44-6.24,13.88c-0.03,0.59-0.08,1.18-0.15,1.76c-0.02,0.19-0.13,0.36-0.24,0.63
		c-2.89-0.91-5.66-2.02-6.12-5.42c-0.2-1.48,0.12-3.15,0.62-4.6c1.69-4.94,4.95-8.8,8.96-12.03c18.58-14.92,39.56-24.85,62.78-30.13
		c8.6-1.96,17.3-3.32,26.1-3.88c5.93-0.38,11.69,0.55,17.22,2.71c12.15,4.73,17.02,16.33,11.83,28.28
		c-3.74,8.63-10.05,15.07-17.73,20.28c-6.09,4.13-12.67,7.35-19.36,10.38c-0.52,0.24-1.04,0.49-1.64,0.77c1.04,1.6,2.64,2,4.15,2.53
		c4.4,1.54,8.3,3.88,11.5,7.26c6.96,7.35,8.22,17.23,3.38,26.95c-4.62,9.29-11.72,16.38-20.48,21.76
		c-11.42,7-23.91,11.48-36.81,14.84c-7.78,2.03-15.71,3.22-23.77,3.36c-0.32,0.01-0.64,0.16-0.95,0.25
		C58.82,271,57.54,271,56.26,271z M66.94,233.74c-0.37,0-0.58-0.05-0.74,0.01c-6.73,2.33-13.52,4.48-20.15,7.06
		c-4.16,1.62-7.71,4.37-10.42,8c-3.78,5.05-2.48,10.56,3.14,13.41c3.82,1.94,7.9,2.99,12.19,3.13c7.11,0.23,14.17-0.26,21.18-1.38
		c16.19-2.57,31.08-8.45,44.63-17.63c7.23-4.9,12.95-11.17,16.18-19.44c1.89-4.84,2.3-9.74,0.3-14.65
		c-2.68-6.56-7.96-10.04-14.53-11.85c-7.78-2.15-15.51-1.2-23.23,0.46c-1.38,0.3-2.24,1-2.86,2.26c-3.61,7.32-7.27,14.61-10.9,21.91
		c-0.19,0.38-0.32,0.78-0.54,1.35c7.52-0.09,14.86-1.42,22.25,0.35c-0.92,0.74-1.88,1.51-2.94,1.68c-5.63,0.9-11.27,1.81-16.94,2.38
		c-3.75,0.38-6.08,2.04-7.63,5.47c-2.12,4.7-4.62,9.22-6.98,13.81c-0.26,0.51-0.65,0.99-1.07,1.4c-1.33,1.32-3.18,1.38-5.17,0.25
		c-1.71-0.99-2.26-2.27-1.69-4.22c0.26-0.89,0.66-1.74,1.03-2.6C63.66,241.22,65.27,237.54,66.94,233.74z"/>
	<path class="st6" d="M238.42,214.65c-0.99,0.41-2.11,0.65-2.94,1.27c-10.02,7.45-17.95,16.76-24.36,27.41
		c-0.58,0.96-0.91,2.07-1.42,3.07c-1,1.93-2.35,2.42-4.58,1.74c-2.26-0.69-3.43-2.16-3.17-4.16c0.2-1.6,0.55-3.17,0.91-5.21
		c-0.68,0.55-1.06,0.87-1.45,1.18c-2.53,2.03-5.05,4.09-7.61,6.08c-0.73,0.57-1.58,1.01-2.41,1.43c-5.81,2.95-10.11,1.4-12.57-4.64
		c-0.81-1.98-1.32-4.09-2-6.21c-1.79,1.76-3.5,3.51-5.27,5.2c-3.96,3.77-8.28,6.98-13.7,8.37c-5.52,1.42-10.14-0.95-11.17-5.93
		c-0.35-1.69-0.28-3.55-0.01-5.27c0.97-6.15,4-11.37,7.88-16.1c5.66-6.9,12.42-12.32,21.01-15.19c3.52-1.17,7.13-1.48,10.78-0.76
		c2.9,0.57,4.78,2.4,5.94,5.03c0.83,1.87,0.34,3.31-1.53,4.57c-0.56-0.66-1.11-1.34-1.68-2c-3.02-3.44-5.48-4.08-9.71-2.32
		c-7.09,2.94-12.88,7.54-17.29,13.83c-2.84,4.06-4.9,8.51-6.26,13.27c-0.25,0.88-0.44,1.85-0.33,2.74c0.34,2.78,2.43,3.94,5.01,2.9
		c4.72-1.9,8.47-5.15,11.98-8.7c4.02-4.08,7.03-8.83,9.2-14.13c1.1-2.69,2.77-4.8,6.05-4.8c3.5,0,4.56,1.66,3.35,4.94
		c-1.49,4.05-3.01,8.09-4.23,12.23c-0.5,1.68-0.45,3.62-0.26,5.39c0.32,2.94,2.12,3.88,4.82,2.62c3.66-1.71,6.71-4.27,9.49-7.16
		c4.3-4.48,7-9.94,9.48-15.53c1.48-3.32,2.99-6.63,4.55-9.91c1.15-2.41,2.35-2.99,4.39-2.33c2.38,0.77,3.72,2.63,3.17,4.94
		c-0.56,2.33-1.47,4.57-2.27,6.84c-0.57,1.62-1.2,3.21-1.87,4.99c1.73,0.14,2.76-0.75,3.82-1.73c3.86-3.57,7.63-7.26,11.73-10.55
		c2.38-1.91,5.25-3.27,8.03-4.6c2.14-1.03,4.34-0.78,6.09,1.09c1.43,1.53,1.67,3.4,1.06,5.24c-1.68,5.08-3.54,10.1-5.29,15.16
		c-1.19,3.43-2.36,6.87-3.43,10.34c-0.56,1.83-0.2,3.54,1.42,4.76c1.57,1.18,3.19,0.83,4.69-0.11c1.88-1.17,3.75-2.36,5.49-3.72
		c2.67-2.09,4.09-4.97,4.76-8.26c1.87-9.21,6.8-16.46,14.37-21.92c3.85-2.77,8.16-4.2,12.94-3.09c3.55,0.82,5.64,4.44,4.69,7.96
		c-0.34,1.26-0.9,2.51-1.61,3.61c-4.47,6.9-10.28,12.32-18.01,15.36c-4.73,1.86-4.49,5.8-2.43,9.31c1.11,1.88,3.16,2.09,5.13,1.76
		c1.34-0.22,2.76-0.53,3.93-1.18c7.75-4.31,14.68-9.6,19.34-17.34c1.26-2.09,2.28-4.35,3.19-6.62c3.1-7.75,6.08-15.54,9.15-23.3
		c1.3-3.28,0.87-3.9-2.66-4.14c-6.51-0.44-12.99-0.47-19.44,0.63c-6.68,1.14-12.93,3.38-18.46,7.4c-0.67,0.48-1.35,0.94-2.09,0.19
		c-0.71-0.72-0.87-1.6-0.22-2.39c0.65-0.79,1.42-1.5,2.22-2.15c6.23-5.05,13.43-7.71,21.34-8.55c3.72-0.4,7.44-0.77,11.18-0.87
		c2.39-0.07,4.81,0.25,7.19,0.62c3.69,0.57,5.31-0.17,7.05-3.5c2.16-4.14,4.33-8.28,6.56-12.37c1.37-2.5,2.77-5,4.34-7.37
		c1.78-2.67,4.2-2.9,6.69-0.87c0.97,0.79,1.41,1.78,1.02,3c-0.28,0.88-0.63,1.76-1.04,2.59c-3.03,6.12-6.09,12.23-9.13,18.35
		c-0.17,0.34-0.29,0.71-0.49,1.2c19.35,2.1,36.81-2.96,53.26-13.19c-0.48,2.49-1.85,3.95-3.5,5.24
		c-7.29,5.71-15.46,9.52-24.51,11.48c-6.59,1.43-13.26,1.67-19.98,1.52c-6.28-0.14-9.08,1.78-11.28,7.65
		c-3.5,9.33-7.03,18.66-10.36,28.05c-1.11,3.13-1.71,6.45-2.4,9.71c-0.43,2.04,0,3.94,1.86,5.23c1.88,1.3,3.83,1.02,5.52-0.2
		c6.99-5.01,13.24-10.68,16.76-18.82c3.92-9.09,10.71-15.07,20.28-17.7c8.54-2.35,15.45,2.92,15.79,11.22
		c0.05,1.28,0.07,2.56,0.23,3.82c0.21,1.63,1.21,2.26,2.57,1.41c6.32-3.94,13.15-7.31,16.76-14.42c0.76-1.5,2.24-1.89,3.96-1.31
		c2.29,0.76,3.66,2.38,3.22,4.3c-0.63,2.77-1.55,5.47-2.36,8.2c-0.12,0.42-0.49,0.82-0.48,1.22c0.02,0.53,0.15,1.24,0.51,1.51
		c0.37,0.28,1.1,0.25,1.62,0.13c0.38-0.09,0.72-0.49,1.02-0.82c5.31-5.85,11.35-10.76,18.43-14.32c0.92-0.46,1.87-0.9,2.85-1.21
		c2.28-0.72,4.36-0.4,6.15,1.31c1.78,1.7,2.16,3.84,1.4,5.97c-1.3,3.65-2.91,7.19-4.4,10.77c-1.68,4.05-3.27,8.16-3.48,12.58
		c-0.11,2.37-0.02,4.85,0.53,7.15c1.12,4.66,4.94,7.31,10.16,7.35c6.83,0.05,13.07-2.07,18.94-5.39c6.63-3.74,12.61-8.4,18.41-13.3
		c0.56-0.47,1.12-0.93,1.7-1.4c1.02,1.67,0.91,2.82-0.47,4.3c-4.44,4.76-9.21,9.16-14.65,12.79c-7.29,4.86-15.26,7.69-24.07,7.9
		c-4.83,0.12-9.55-0.53-13.71-3.27c-4.53-2.98-6.41-7.44-6.67-12.67c-0.28-5.42,1.26-10.5,3.11-15.5c1.3-3.54,2.64-7.06,4.01-10.71
		c-1.81-0.57-3.21,0.07-4.5,0.99c-9.14,6.54-16.96,14.38-23.22,23.73c-1.72,2.57-3.26,5.27-5,7.84c-1.24,1.83-2.77,2.2-4.76,1.39
		c-2.21-0.9-3.36-2.62-2.98-4.69c0.21-1.15,0.56-2.29,0.98-3.39c2.2-5.68,4.45-11.34,6.67-17.01c0.18-0.45,0.31-0.91,0.56-1.64
		c-0.48,0.26-0.75,0.4-1.01,0.55c-2.87,1.61-5.72,3.28-8.62,4.82c-4.4,2.34-7.64,5.61-9.84,10.19c-3.53,7.37-9.89,11.24-17.7,12.9
		c-1.76,0.37-3.62,0.55-5.42,0.47c-4.25-0.21-7.19-2.5-8.86-6.32c-0.84-1.92-1.36-3.98-2.08-6.15c-0.37,0.28-0.78,0.58-1.17,0.91
		c-2.39,2.06-4.73,4.17-7.16,6.18c-3.29,2.71-7.07,4.25-11.36,4.35c-4.78,0.11-7.96-2.42-8.96-7.09c-0.25-1.19-0.3-2.43-0.32-3.66
		c-0.02-0.99,0.22-2.02-0.96-2.53c-1.19-0.52-1.95,0.19-2.67,0.98c-3.99,4.39-8.72,7.79-14.07,10.34c-3.03,1.44-6.19,2.34-9.57,1.87
		c-3.96-0.55-6.84-2.83-9.14-5.95c-0.52-0.71-1.02-1.43-1.53-2.14c-2.16,1.66-4.19,3.37-6.37,4.87c-2.81,1.93-5.93,3.07-9.4,3.03
		c-4.6-0.05-7.81-3.05-8.13-7.65c-0.37-5.32,1.03-10.33,2.84-15.24c1.09-2.94,2.43-5.79,3.6-8.71c0.37-0.93,0.57-1.93,0.85-2.89
		C238.77,215.03,238.59,214.84,238.42,214.65z M351.74,231.86c-2.89-1.29-5.71-2.24-8.19-3.74c-2.74-1.66-2.83-4.96-3.73-7.81
		c-0.28,0.22-0.46,0.31-0.58,0.45c-5.01,6.05-7.17,13-7,20.84c0.08,3.88,3.82,6.02,7.49,4.1
		C345.63,242.62,349.01,237.44,351.74,231.86z M266.87,230.68c0.14,0.07,0.27,0.14,0.41,0.21c3.81-2.48,7.64-4.94,10.6-8.51
		c1.88-2.27,3.14-4.84,3.79-7.72c0.25-1.11,0.44-2.17-0.64-2.93c-1.14-0.81-2.06-0.07-2.93,0.57c-4.08,3.03-7.17,6.86-9.02,11.6
		C268.22,226.11,267.6,228.42,266.87,230.68z M352.19,225.6c1.8,0.03,2.52-0.53,2.64-2.41c0.15-2.24,0.2-4.49,0.13-6.74
		c-0.08-2.43-1.09-3.64-2.98-3.93c-1.97-0.3-3.72,0.71-4.56,2.71c-1.02,2.44-0.97,4.9,0.14,7.28
		C348.45,224.44,350.01,225.53,352.19,225.6z"/>
	<path class="st6" d="M363.45,198c-0.16,0.21-0.42,0.84-0.89,1.17c-3.14,2.18-6.77,3.05-10.45,3.76c-0.36,0.07-1.18-0.41-1.17-0.54
		c0.09-0.63,0.23-1.58,0.66-1.79c3.3-1.63,6.64-3.17,10.03-4.61C362.66,195.54,363.49,196.39,363.45,198z"/>
</g>
</svg>
