<svg id="Capa_1" data-name="Capa 1" xmlns="http://www.w3.org/2000/svg" viewBox="0 0 611 621"><defs><style>.cls-1{fill:#acb892;}.cls-2{fill:#f0a27a;}.cls-3{fill:#724f36;}.cls-4{fill:#fdecc9;}.cls-5{fill:#fefefe;}.cls-6{font-size:36px;fill:#744f39;font-family:Bristone-Thin, Bristone;font-weight:200;}.cls-7{letter-spacing:-0.17em;}.cls-8{letter-spacing:-0.03em;}.cls-9{letter-spacing:-0.02em;}</style></defs><path class="cls-1" d="M0,0ZM0,0ZM0,0Z" transform="translate(-282 -234)"/><path class="cls-2" d="M0,0ZM0,0ZM0,0Z" transform="translate(-282 -234)"/><path class="cls-3" d="M0,0ZM0,0ZM0,0ZM0,0ZM0,0Z" transform="translate(-282 -234)"/><path class="cls-3" d="M0,0Z" transform="translate(-282 -234)"/><path class="cls-3" d="M0,0Z" transform="translate(-282 -234)"/><path class="cls-3" d="M0,0Z" transform="translate(-282 -234)"/><path class="cls-4" d="M0,0ZM0,0Z" transform="translate(-282 -234)"/><path class="cls-4" d="M0,0ZM0,0Z" transform="translate(-282 -234)"/><path class="cls-4" d="M0,0ZM0,0Z" transform="translate(-282 -234)"/><path class="cls-4" d="M0,0ZM0,0Z" transform="translate(-282 -234)"/><path class="cls-5" d="M0,0Z" transform="translate(-282 -234)"/><path class="cls-5" d="M0,0Z" transform="translate(-282 -234)"/><path class="cls-5" d="M0,0Z" transform="translate(-282 -234)"/><path class="cls-3" d="M0,0Z" transform="translate(-282 -234)"/><text class="cls-6" transform="translate(183 527)"><tspan class="cls-7">P</tspan><tspan x="22" y="0">ANADERÍA </tspan><tspan x="-29" y="43">Y </tspan><tspan class="cls-7" x="16" y="43">P</tspan><tspan class="cls-8" x="39" y="43">A</tspan><tspan class="cls-9" x="73" y="43">S</tspan><tspan x="101" y="43">TELERÍA </tspan><tspan x="38" y="86">CHILENA</tspan></text></svg>